<svg xmlns="http://www.w3.org/2000/svg" viewBox="0 0 21.657 17.216">
  <g id="dashboard" transform="translate(0 -52.499)">
    <g id="Group_219" data-name="Group 219" transform="translate(0 52.499)">
      <g id="Group_218" data-name="Group 218">
        <path id="Path_264" data-name="Path 264" d="M206.143,123.746a.846.846,0,0,0-1.075-.1c-1.266.863-7.615,5.2-8.3,5.884a2.538,2.538,0,0,0,3.589,3.589c.682-.682,5.021-7.032,5.884-8.3A.846.846,0,0,0,206.143,123.746Zm-6.979,8.176a.846.846,0,0,1-1.2-1.2c.265-.262,2.068-1.548,4.286-3.089C200.711,129.854,199.425,131.657,199.163,131.922Z" transform="translate(-187.737 -120.495)"/>
        <path id="Path_265" data-name="Path 265" d="M3.9,67.263l-1.044.509a9.094,9.094,0,0,1-.57-7.688l1.2.574a.846.846,0,1,0,.732-1.526l-1.182-.567A9.148,9.148,0,0,1,9.983,54.23V55.5a.846.846,0,1,0,1.692,0V54.229A9.032,9.032,0,0,1,14.584,55a.846.846,0,1,0,.7-1.542A10.82,10.82,0,0,0,1.835,69.339a.846.846,0,0,0,1.074.29l1.734-.846A.846.846,0,1,0,3.9,67.263Z" transform="translate(0 -52.499)"/>
        <path id="Path_266" data-name="Path 266" d="M394.2,191.992a.846.846,0,1,0-1.542.7,9.107,9.107,0,0,1-.364,8.206l-1.09-.519a.846.846,0,1,0-.727,1.528l1.777.846a.846.846,0,0,0,1.067-.294,10.8,10.8,0,0,0,.88-10.463Z" transform="translate(-373.498 -185.614)"/>
      </g>
    </g>
  </g>
</svg>
