<svg xmlns="http://www.w3.org/2000/svg" viewBox="0 0 24.84 14.501">
  <g id="Group_236" data-name="Group 236" transform="translate(-364 97.539)">
    <g id="Group_221" data-name="Group 221" transform="translate(364 -91.018)">
      <g id="Group_220" data-name="Group 220">
        <path id="Path_287" data-name="Path 287" d="M37.009,268.65H33.814a3.817,3.817,0,0,0-1.884.5,3.885,3.885,0,0,0-1.24,1.114,3.826,3.826,0,0,0-.661-.057h-3.2a3.823,3.823,0,0,0-.661.057,3.882,3.882,0,0,0-1.24-1.114,3.817,3.817,0,0,0-1.884-.5H19.852a3.856,3.856,0,0,0-3.847,3.847v2.169a.413.413,0,0,0,.413.41h6.555v1.14a.413.413,0,0,0,.413.413H33.464a.413.413,0,0,0,.413-.413v-1.14h6.555a.413.413,0,0,0,.413-.413V272.5A3.856,3.856,0,0,0,37.009,268.65Zm-13.993,5.03v.57H16.831V272.5a3.029,3.029,0,0,1,3.021-3.021h3.195a2.992,2.992,0,0,1,1.476.388,3.069,3.069,0,0,1,.8.653A3.867,3.867,0,0,0,23.016,273.68Zm10.026.371v1.756H23.811v-2.4l.017-.068.028-.1.02-.068a3.038,3.038,0,0,1,2.873-2.086l.083-.046h3.2a3.032,3.032,0,0,1,3,2.636.7.7,0,0,0,.017.188Zm6.988.2H33.874v-1.2l-.02-.071v-.14l-.04-.111a3.879,3.879,0,0,0-2.1-2.2,3.07,3.07,0,0,1,.618-.673,2.993,2.993,0,0,1,1.476-.388h3.2A3.03,3.03,0,0,1,40.03,272.5Z" transform="translate(-16.005 -268.65)"/>
      </g>
    </g>
    <g id="Group_225" data-name="Group 225" transform="translate(366.531 -97.536)">
      <g id="Group_224" data-name="Group 224">
        <path id="Path_288" data-name="Path 288" d="M56.5,178.025a2.91,2.91,0,1,0,.85,2.057A2.9,2.9,0,0,0,56.5,178.025Zm-.584,3.525a2.083,2.083,0,1,1,.61-1.473A2.083,2.083,0,0,1,55.915,181.55Z" transform="translate(-51.529 -177.17)"/>
      </g>
    </g>
    <g id="Group_231" data-name="Group 231" transform="translate(380.498 -97.539)">
      <g id="Group_230" data-name="Group 230">
        <path id="Path_290" data-name="Path 290" d="M250.474,177.13a2.91,2.91,0,1,0,2.907,2.912A2.91,2.91,0,0,0,250.474,177.13Zm1.471,4.382a2.083,2.083,0,1,1,0-2.946A2.083,2.083,0,0,1,251.945,181.512Z" transform="translate(-247.562 -177.13)"/>
      </g>
    </g>
    <g id="Group_235" data-name="Group 235" transform="translate(373.52 -95.986)">
      <g id="Group_234" data-name="Group 234" transform="translate(0)">
        <path id="Path_291" data-name="Path 291" d="M154.584,199.778a2.907,2.907,0,1,0,.007,4.111A2.907,2.907,0,0,0,154.584,199.778Zm-2.054,4.148a2.083,2.083,0,1,1,2.084-2.083A2.083,2.083,0,0,1,152.53,203.925Z" transform="translate(-149.625 -198.93)"/>
      </g>
    </g>
  </g>
</svg>
