<svg xmlns="http://www.w3.org/2000/svg" viewBox="0 0 54 54">
  <defs>
    <style>
      .cls-1 {
        fill: #0cafc1;
        opacity: 0.09;
      }

      .cls-2 {
        fill: #10a055;
      }

      .cls-3 {
        fill: #0e2459;
      }
    </style>
  </defs>
  <g id="Group_872" data-name="Group 872" transform="translate(-327 -120)">
    <circle id="Ellipse_34" data-name="Ellipse 34" class="cls-1" cx="27" cy="27" r="27" transform="translate(327 120)"/>
    <g id="wallet-filled-money-tool_1_" data-name="wallet-filled-money-tool (1)" transform="translate(342.771 133.041)">
      <g id="Group_833" data-name="Group 833">
        <path id="Path_309" data-name="Path 309" class="cls-2" d="M160.8,22.176l9.46-2.582-.5-1.013a1.333,1.333,0,0,0-1.785-.6l-8.468,4.2Z" transform="translate(-155.25 -17.84)"/>
        <path id="Path_310" data-name="Path 310" class="cls-2" d="M331.361,86.46a1.332,1.332,0,0,0-.352.048l-2.222.608L322,88.967h11.061l-.416-1.524A1.33,1.33,0,0,0,331.361,86.46Z" transform="translate(-313.42 -84.631)"/>
        <path id="Path_311" data-name="Path 311" class="cls-3" d="M21.03,215.56H1.335a1.334,1.334,0,0,0-1.287.983,1.379,1.379,0,0,0-.048.349v14.845a1.333,1.333,0,0,0,1.332,1.332H21.027a1.333,1.333,0,0,0,1.332-1.332V228.02H14.453a2.267,2.267,0,0,1-2.265-2.265v-2.963a2.261,2.261,0,0,1,2.262-2.262H22.36v-3.637A1.329,1.329,0,0,0,21.03,215.56Z" transform="translate(0 -210.291)"/>
        <path id="Path_312" data-name="Path 312" class="cls-3" d="M502.574,437.11a1.331,1.331,0,0,0-.466-.277,1.359,1.359,0,0,0-.432-.072h-7.944a1.333,1.333,0,0,0-1.332,1.332v2.966a1.333,1.333,0,0,0,1.332,1.332h7.944a1.358,1.358,0,0,0,.432-.072,1.292,1.292,0,0,0,.466-.277,1.328,1.328,0,0,0,.434-.983v-2.966A1.328,1.328,0,0,0,502.574,437.11Zm-6.06,2.731a.666.666,0,0,1-.666.666h-.442a.666.666,0,0,1-.666-.666V439.4a.653.653,0,0,1,.256-.522.673.673,0,0,1,.41-.144h.442a.666.666,0,0,1,.666.666v.442Z" transform="translate(-479.279 -425.598)"/>
      </g>
    </g>
  </g>
</svg>
