<svg id="Group_835" data-name="Group 835" xmlns="http://www.w3.org/2000/svg" viewBox="0 0 54 54">
  <defs>
    <style>
      .cls-1 {
        fill: #0cafc1;
        opacity: 0.09;
      }

      .cls-2 {
        fill: #0e2459;
      }
    </style>
  </defs>
  <circle id="Ellipse_35" data-name="Ellipse 35" class="cls-1" cx="27" cy="27" r="27"/>
  <g id="coin-stack" transform="translate(16 17)">
    <g id="Group_834" data-name="Group 834">
      <path id="Path_313" data-name="Path 313" class="cls-2" d="M6.255,118.3A13.407,13.407,0,0,0,8,118.186v-6.065a13.417,13.417,0,0,0-1.743-.112C2.8,112.009,0,113.279,0,114.846v.615C0,117.027,2.8,118.3,6.255,118.3Z" transform="translate(-0.001 -107.205)"/>
      <path id="Path_314" data-name="Path 314" class="cls-2" d="M6.255,217.207A13.429,13.429,0,0,0,8,217.1v-1.778a13.412,13.412,0,0,1-1.743.112c-3.015,0-5.531-.968-6.123-2.256a1.383,1.383,0,0,0-.132.581v.615C0,215.937,2.8,217.207,6.255,217.207Z" transform="translate(-0.001 -202.947)"/>
      <path id="Path_315" data-name="Path 315" class="cls-2" d="M8,274.539V274.4a13.412,13.412,0,0,1-1.743.112c-3.015,0-5.531-.968-6.123-2.256a1.383,1.383,0,0,0-.132.581v.615c0,1.567,2.8,2.837,6.254,2.837a13.283,13.283,0,0,0,1.976-.145A2.238,2.238,0,0,1,8,275.155Z" transform="translate(0 -258.864)"/>
      <path id="Path_316" data-name="Path 316" class="cls-2" d="M174.493,22.379c-3.454,0-6.254,1.27-6.254,2.837v.615c0,1.567,2.8,2.837,6.254,2.837s6.254-1.27,6.254-2.837v-.615C180.747,23.649,177.947,22.379,174.493,22.379Z" transform="translate(-159.221 -22.379)"/>
      <path id="Path_317" data-name="Path 317" class="cls-2" d="M174.493,125.8c-3.015,0-5.531-.968-6.123-2.256a1.383,1.383,0,0,0-.132.581v.615c0,1.567,2.8,2.837,6.254,2.837s6.254-1.27,6.254-2.837v-.615a1.383,1.383,0,0,0-.132-.581C180.025,124.832,177.508,125.8,174.493,125.8Z" transform="translate(-159.221 -118.122)"/>
      <path id="Path_318" data-name="Path 318" class="cls-2" d="M174.493,184.884c-3.015,0-5.531-.968-6.123-2.256a1.383,1.383,0,0,0-.132.581v.615c0,1.567,2.8,2.837,6.254,2.837s6.254-1.27,6.254-2.837v-.615a1.383,1.383,0,0,0-.132-.581C180.025,183.916,177.508,184.884,174.493,184.884Z" transform="translate(-159.221 -174.039)"/>
      <path id="Path_319" data-name="Path 319" class="cls-2" d="M174.493,247.157c-3.015,0-5.531-.968-6.123-2.256a1.383,1.383,0,0,0-.132.581v.615c0,1.567,2.8,2.837,6.254,2.837s6.254-1.27,6.254-2.837v-.615a1.383,1.383,0,0,0-.132-.581C180.025,246.189,177.508,247.157,174.493,247.157Z" transform="translate(-159.221 -232.974)"/>
      <path id="Path_320" data-name="Path 320" class="cls-2" d="M174.493,306.24c-3.015,0-5.531-.968-6.123-2.256a1.383,1.383,0,0,0-.132.581v.615c0,1.567,2.8,2.837,6.254,2.837s6.254-1.27,6.254-2.837v-.615a1.383,1.383,0,0,0-.132-.581C180.025,305.272,177.508,306.24,174.493,306.24Z" transform="translate(-159.221 -288.89)"/>
    </g>
  </g>
</svg>
