<svg xmlns="http://www.w3.org/2000/svg" viewBox="0 0 18.718 19.324">
  <g id="invoice_2_" data-name="invoice (2)" transform="translate(-7.35)">
    <g id="Group_237" data-name="Group 237" transform="translate(7.35)">
      <path id="Path_292" data-name="Path 292" d="M25.573,0H7.845a.495.495,0,0,0,0,.989H8.913V18.817a.5.5,0,0,0,.26.437.488.488,0,0,0,.507-.025L11.827,17.8l2.156,1.435a.492.492,0,0,0,.548,0L16.68,17.8l2.156,1.435a.492.492,0,0,0,.548,0l2.148-1.431,2.156,1.435a.5.5,0,0,0,.272.082.534.534,0,0,0,.235-.058.5.5,0,0,0,.26-.437L24.447,1h1.126a.5.5,0,0,0,.495-.495A.507.507,0,0,0,25.573,0Zm-2.1,17.893-1.662-1.1a.492.492,0,0,0-.548,0l-2.148,1.435-2.156-1.435a.492.492,0,0,0-.548,0L14.26,18.219,12.1,16.788a.492.492,0,0,0-.548,0L9.9,17.889V.985H23.466Z" transform="translate(-7.35)"/>
      <path id="Path_293" data-name="Path 293" d="M112.945,168.589h5.182a.495.495,0,1,0,0-.989h-5.182a.495.495,0,1,0,0,.989Z" transform="translate(-108.117 -160.69)"/>
      <path id="Path_294" data-name="Path 294" d="M112.945,210.29h3.884a.495.495,0,0,0,0-.989h-3.884a.495.495,0,0,0,0,.989Z" transform="translate(-108.117 -200.671)"/>
      <path id="Path_295" data-name="Path 295" d="M301.445,168.589h1.295a.495.495,0,0,0,0-.989h-1.295a.495.495,0,0,0,0,.989Z" transform="translate(-288.845 -160.69)"/>
      <path id="Path_296" data-name="Path 296" d="M301.445,210.29h1.295a.495.495,0,0,0,0-.989h-1.295a.495.495,0,0,0,0,.989Z" transform="translate(-288.845 -200.671)"/>
      <path id="Path_297" data-name="Path 297" d="M112.945,72.289h5.182a.495.495,0,1,0,0-.989h-5.182a.495.495,0,0,0,0,.989Z" transform="translate(-108.117 -68.36)"/>
      <path id="Path_298" data-name="Path 298" d="M112.945,113.889h3.884a.495.495,0,0,0,0-.989h-3.884a.495.495,0,0,0,0,.989Z" transform="translate(-108.117 -108.245)"/>
      <path id="Path_299" data-name="Path 299" d="M301.445,72.289h1.295a.495.495,0,0,0,0-.989h-1.295a.495.495,0,0,0,0,.989Z" transform="translate(-288.845 -68.36)"/>
      <path id="Path_300" data-name="Path 300" d="M301.445,113.889h1.295a.495.495,0,0,0,0-.989h-1.295a.495.495,0,0,0,0,.989Z" transform="translate(-288.845 -108.245)"/>
      <path id="Path_301" data-name="Path 301" d="M112.945,266.09h5.182a.495.495,0,1,0,0-.989h-5.182a.495.495,0,0,0,0,.989Z" transform="translate(-108.117 -254.17)"/>
      <path id="Path_302" data-name="Path 302" d="M112.945,307.689h3.884a.495.495,0,1,0,0-.989h-3.884a.495.495,0,1,0,0,.989Z" transform="translate(-108.117 -294.055)"/>
      <path id="Path_303" data-name="Path 303" d="M301.445,266.09h1.295a.495.495,0,0,0,0-.989h-1.295a.495.495,0,0,0,0,.989Z" transform="translate(-288.845 -254.17)"/>
      <path id="Path_304" data-name="Path 304" d="M301.445,307.689h1.295a.495.495,0,0,0,0-.989h-1.295a.495.495,0,1,0,0,.989Z" transform="translate(-288.845 -294.055)"/>
    </g>
  </g>
</svg>
