<svg xmlns="http://www.w3.org/2000/svg" viewBox="0 0 15.515 17.732">
  <g id="password" transform="translate(-32)">
    <g id="Group_239" data-name="Group 239" transform="translate(32)">
      <g id="Group_238" data-name="Group 238">
        <circle id="Ellipse_2" data-name="Ellipse 2" cx="0.693" cy="0.693" r="0.693" transform="translate(11.013 11.29)"/>
        <path id="Path_305" data-name="Path 305" d="M46.823,12.537a.693.693,0,0,0,.693-.693V9.281a2.774,2.774,0,0,0-2.771-2.771h-.832V4.068a4.157,4.157,0,0,0-8.312,0V6.511h-.83A2.774,2.774,0,0,0,32,9.281v5.68a2.774,2.774,0,0,0,2.771,2.771h9.974a2.774,2.774,0,0,0,2.771-2.771.693.693,0,1,0-1.385,0,1.387,1.387,0,0,1-1.385,1.385H34.771a1.387,1.387,0,0,1-1.385-1.385V9.281A1.387,1.387,0,0,1,34.771,7.9h9.974A1.387,1.387,0,0,1,46.13,9.281v2.563A.693.693,0,0,0,46.823,12.537Zm-4.3-6.026H36.986V4.068a2.772,2.772,0,0,1,5.541,0Z" transform="translate(-32)"/>
        <circle id="Ellipse_3" data-name="Ellipse 3" cx="0.693" cy="0.693" r="0.693" transform="translate(5.784 11.29)"/>
        <circle id="Ellipse_4" data-name="Ellipse 4" cx="0.693" cy="0.693" r="0.693" transform="translate(3.186 11.29)"/>
        <circle id="Ellipse_5" data-name="Ellipse 5" cx="0.693" cy="0.693" r="0.693" transform="translate(8.381 11.29)"/>
      </g>
    </g>
  </g>
</svg>
