<svg xmlns="http://www.w3.org/2000/svg" viewBox="0 0 18.809 19">
  <g id="wallet" transform="translate(-1.681)">
    <path id="Path_286" data-name="Path 286" d="M20.49,8.851h-.912V4.658a1.825,1.825,0,0,0-1.823-1.823H16.521L15.257.563A1.094,1.094,0,0,0,13.77.138l-4.849,2.7H3.5A1.825,1.825,0,0,0,1.681,4.658V17.177A1.825,1.825,0,0,0,3.5,19H17.756a1.825,1.825,0,0,0,1.823-1.823V13.5h.912V8.851ZM17.756,3.564a1.092,1.092,0,0,1,1.082.972h-1.37l-.54-.972ZM14.124.775a.372.372,0,0,1,.5.142l2.013,3.619H7.361Zm4.725,16.4a1.1,1.1,0,0,1-1.094,1.094H3.5A1.1,1.1,0,0,1,2.41,17.177V4.658A1.1,1.1,0,0,1,3.5,3.564H7.609l-1.749.973H3.732a.365.365,0,0,0,0,.729H18.849V8.851H16.183A2.249,2.249,0,0,0,13.937,11.1v.157A2.249,2.249,0,0,0,16.183,13.5h2.667v3.676Zm.912-4.406H16.183a1.519,1.519,0,0,1-1.517-1.517V11.1A1.519,1.519,0,0,1,16.183,9.58h3.578ZM17.3,11.205a.805.805,0,1,1-.805-.805A.8.8,0,0,1,17.3,11.205Z" transform="translate(0)"/>
  </g>
</svg>
